<svg xmlns="http://www.w3.org/2000/svg" width="122.329" height="36.362" viewBox="0 0 122.329 36.362">
  <g id="bbc-seeklogo.com" transform="translate(-2.834 -68.572)">
    <path id="Path_1955" data-name="Path 1955" d="M147.539,104.934V68.572H109.622v36.362ZM138.9,79.015a17.4,17.4,0,0,0-8.578-2.549,9.791,9.791,0,0,0-7.21,2.8A8.924,8.924,0,0,0,120.19,86.1a9.392,9.392,0,0,0,2.859,6.838,10.5,10.5,0,0,0,7.21,2.61,16.45,16.45,0,0,0,8.951-2.8v3.917a18.774,18.774,0,0,1-9.138,2.237,14.393,14.393,0,0,1-7.211-1.678,13.955,13.955,0,0,1-4.661-4.663,13.624,13.624,0,0,1-1.741-6.464,12.047,12.047,0,0,1,3.978-9.262,13.528,13.528,0,0,1,9.635-3.792A21.465,21.465,0,0,1,138.9,75.16v3.854h0ZM105.4,68.572H67.479v36.362H105.4ZM79.1,73.979h6.589a11.677,11.677,0,0,1,4.91.808,6.369,6.369,0,0,1,2.612,2.3,6.274,6.274,0,0,1,.932,3.418c0,2.486-1.244,4.227-3.854,5.284a7.093,7.093,0,0,1,4.414,2.3,6.214,6.214,0,0,1,1.616,4.164,7.076,7.076,0,0,1-.994,3.419A7.777,7.777,0,0,1,92.4,98.16a10.945,10.945,0,0,1-4.786.932H79.1Z" transform="translate(-22.376 0)" fill-rule="evenodd"/>
    <path id="Path_1956" data-name="Path 1956" d="M62.693,84.733a6.375,6.375,0,0,0,4.1-1.057,3.943,3.943,0,0,0,1.242-2.921c0-2.362-1.553-3.605-4.6-3.605H60.332v7.583h2.362Zm.995,3.232H60.332v7.893h3.605a15.6,15.6,0,0,0,3.915-.373,4.684,4.684,0,0,0,1.741-1.491,3.973,3.973,0,0,0,.622-2.051,4.037,4.037,0,0,0-.685-2.051A3.261,3.261,0,0,0,67.665,88.4,10.908,10.908,0,0,0,63.688,87.965ZM40.751,68.572H2.834v36.362H40.751ZM14.4,99.091V73.979h6.589a11.371,11.371,0,0,1,4.848.808,5.88,5.88,0,0,1,2.673,2.362,6.472,6.472,0,0,1,.995,3.356c-.062,2.486-1.305,4.227-3.916,5.345A7.18,7.18,0,0,1,30,88.088a5.928,5.928,0,0,1,1.616,4.164,5.691,5.691,0,0,1-.995,3.419,7.017,7.017,0,0,1-2.859,2.487,11.236,11.236,0,0,1-4.848.932H14.4Z" transform="translate(0 0)" fill-rule="evenodd"/>
    <path id="Path_1957" data-name="Path 1957" d="M29.139,81.691H26.031v7.583h2.424A6.3,6.3,0,0,0,32.5,88.218a3.811,3.811,0,0,0,1.243-2.859C33.738,82.934,32.184,81.691,29.139,81.691Zm.248,10.815H26.031V100.4h3.543a15.394,15.394,0,0,0,4.04-.373,3.993,3.993,0,0,0,1.678-1.368,5.18,5.18,0,0,0,.622-2.175,3.823,3.823,0,0,0-.684-2.051A3.322,3.322,0,0,0,33.365,93a11.057,11.057,0,0,0-3.977-.5Z" transform="translate(-8.029 -4.541)" fill-rule="evenodd"/>
  </g>
</svg>
