<svg xmlns="http://www.w3.org/2000/svg" width="183.977" height="89.021" viewBox="0 0 183.977 89.021">
  <g id="Rectangle_713" data-name="Rectangle 713" transform="translate(183.977 89.021) rotate(180)" fill="none" stroke="#333" stroke-miterlimit="10" stroke-width="1">
    <path d="M89.021,0h5.935a89.021,89.021,0,0,1,89.021,89.021v0a0,0,0,0,1,0,0H0a0,0,0,0,1,0,0v0A89.021,89.021,0,0,1,89.021,0Z" stroke="none"/>
    <path d="M88.027.5H95.95a87.527,87.527,0,0,1,87.527,87.527v0a.494.494,0,0,1-.494.494H.994A.494.494,0,0,1,.5,88.027v0A87.527,87.527,0,0,1,88.027.5Z" fill="none"/>
  </g>
</svg>
