<svg xmlns="http://www.w3.org/2000/svg" width="183.977" height="89.022" viewBox="0 0 183.977 89.022">
  <g id="Path_1841" data-name="Path 1841" transform="translate(-582.697 -542.867)" fill="none" stroke-miterlimit="10">
    <path d="M582.7,542.867v89.022h47.478a44.511,44.511,0,0,1,44.51-44.511h0A44.511,44.511,0,0,1,719.2,631.889h47.478V542.867Z" stroke="none"/>
    <path d="M 583.697021484375 543.8670043945312 L 583.697021484375 630.8889770507812 L 629.1856689453125 630.8889770507812 C 629.3092041015625 625.0984497070312 630.50732421875 619.4803466796875 632.7518310546875 614.1736450195312 C 635.0440673828125 608.7540893554688 638.3253784179688 603.8870849609375 642.504638671875 599.707763671875 C 646.6838989257812 595.5284423828125 651.5508422851562 592.2471313476562 656.97021484375 589.9548950195312 C 662.58154296875 587.5814208984375 668.5416870117188 586.3779907226562 674.6849975585938 586.3779907226562 C 680.8285522460938 586.3779907226562 686.7888793945312 587.5814208984375 692.4003295898438 589.954833984375 C 697.8198852539062 592.2471313476562 702.6868896484375 595.5284423828125 706.8662109375 599.707763671875 C 711.0455322265625 603.8870849609375 714.3268432617188 608.7540893554688 716.619140625 614.1736450195312 C 718.8636474609375 619.4802856445312 720.061767578125 625.0984497070312 720.185302734375 630.8889770507812 L 765.6740112304688 630.8889770507812 L 765.6740112304688 543.8670043945312 L 583.697021484375 543.8670043945312 M 582.697021484375 542.8670043945312 L 766.6740112304688 542.8670043945312 L 766.6740112304688 631.8889770507812 L 719.1959838867188 631.8889770507812 C 719.1959838867188 607.3060302734375 699.2680053710938 587.3779907226562 674.6849975585938 587.3779907226562 C 650.10302734375 587.3779907226562 630.1749877929688 607.3060302734375 630.1749877929688 631.8889770507812 L 582.697021484375 631.8889770507812 L 582.697021484375 542.8670043945312 Z" stroke="none" fill="#333"/>
  </g>
</svg>
