<svg xmlns="http://www.w3.org/2000/svg" width="145" height="55" viewBox="-18.414 -18.414 1420.618 650.639" fill="#010101"  xmlns:v="https://vecta.io/nano"><path d="M247.6 0v95.811h8.58V0zm880 0v95.811h8.58V0zM0 304.76v8.689h63.799v-8.689zm1319.99 0v8.689h63.799v-8.689zM247.6 518v95.811h8.58V518zm880 0v95.811h8.58V518zM253.33 262.85c-7.81 0-14.631 2.969-20.131 8.359-8.8 8.58-9.57 20.571-9.57 32.121s.77 23.539 9.57 32.119c5.5 5.39 12.321 8.361 20.131 8.361 15.18 0 27.389-11.22 28.049-26.4H271.26c-.22 10.01-8.03 17.16-17.93 17.16-5.28 0-9.571-2.201-13.201-5.941-6.38-6.6-6.379-16.719-6.379-25.299s-.001-18.701 6.379-25.301c3.63-3.74 7.921-5.939 13.201-5.939 5.39 0 10.009 2.089 13.199 5.609 2.42 2.53 4.29 6.71 4.51 11h10.23c-.66-15.29-12.869-25.85-27.939-25.85zm658.559 0c-7.81 0-14.74 2.971-20.35 8.471-8.47 8.25-9.459 19.58-9.459 32.01s.989 23.76 9.459 32.01c5.61 5.5 12.54 8.471 20.35 8.471s14.742-2.971 20.352-8.471c8.47-8.25 9.459-19.58 9.459-32.01s-.989-23.76-9.459-32.01c-5.61-5.5-12.542-8.471-20.352-8.471zm220 0c-7.81 0-14.74 2.971-20.35 8.471-8.47 8.25-9.459 19.58-9.459 32.01s.989 23.76 9.459 32.01c5.61 5.5 12.54 8.471 20.35 8.471s14.742-2.971 20.352-8.471c8.47-8.25 9.459-19.58 9.459-32.01s-.989-23.76-9.459-32.01c-5.61-5.5-12.542-8.471-20.352-8.471zm-665.939 1.43l-25.629 77.99h10.01l6.379-20.129h30.25l6.49 20.129h10.121l-25.74-77.99zm199.541 0v77.99h9.568v-62.7l31.24 62.699h11.99v-77.99h-9.459v63.031l-31.131-63.031zm246.398 7.92c5.28 0 9.791 2.091 13.531 5.941 6.38 6.6 6.16 17.049 6.16 25.189s.22 18.589-6.16 25.189c-3.74 3.85-8.251 5.939-13.531 5.939s-9.789-2.089-13.529-5.939c-6.38-6.6-6.16-17.049-6.16-25.189s-.22-18.589 6.16-25.189c3.74-3.85 8.249-5.941 13.529-5.941zm220 0c5.28 0 9.791 2.091 13.531 5.941 6.38 6.6 6.16 17.049 6.16 25.189s.22 18.589-6.16 25.189c-3.74 3.85-8.251 5.939-13.531 5.939s-9.789-2.089-13.529-5.939c-6.38-6.6-6.16-17.049-6.16-25.189s-.22-18.589 6.16-25.189c3.74-3.85 8.249-5.941 13.529-5.941zm-660.219 2.09l12.43 38.61h-24.53z"/></svg>