<svg id="cnn_logo" data-name="cnn logo" xmlns="http://www.w3.org/2000/svg" width="80" height="35" viewBox="0 0 111.881 51.982">
  <path id="Path_1958" data-name="Path 1958" d="M75.814,26.007A17.312,17.312,0,0,0,93.106,43.3h16.152a1.9,1.9,0,0,0,1.8-1.795V9.817a3.63,3.63,0,0,1,6.752-1.854c.08.138,4.971,8.569,10.147,17.5L138.1,42.948a1.509,1.509,0,0,0,2.8-.782V9.817a3.63,3.63,0,0,1,6.751-1.854c.081.138,4.967,8.569,10.141,17.5l10.135,17.488a1.508,1.508,0,0,0,2.8-.782V.226h-6.366V25.19S152.821,5.336,152.448,4.7a9.64,9.64,0,0,0-17.917,4.945V25.19S123,5.336,122.622,4.7a9.64,9.64,0,0,0-17.917,4.945V35.191a1.7,1.7,0,0,1-1.713,1.742H93.174a10.926,10.926,0,0,1,0-21.851H101.4V8.715H93.106A17.312,17.312,0,0,0,75.814,26.007" transform="translate(-67.332 0)"/>
  <path id="Path_1959" data-name="Path 1959" d="M105.514,2.021V43.96a3.63,3.63,0,0,1-6.752,1.854c-.08-.138-4.967-8.569-10.14-17.5C83.68,19.791,78.57,10.972,78.487,10.83a1.508,1.508,0,0,0-2.8.782V43.96a3.63,3.63,0,0,1-6.752,1.854c-.08-.138-4.971-8.569-10.147-17.5L48.647,10.83a1.508,1.508,0,0,0-2.8.782V43.3a4.022,4.022,0,0,1-3.923,3.917H25.775a19.414,19.414,0,1,1,0-38.829h8.292V2.021H25.782a25.782,25.782,0,1,0,0,51.563H42.088c6.177,0,10.15-3.616,10.141-10.292V28.587s11.618,20,11.909,20.494a9.64,9.64,0,0,0,17.916-4.945V28.587S93.591,48.442,93.964,49.08a9.64,9.64,0,0,0,17.917-4.945V2.021Z" transform="translate(0 -1.795)"/>
</svg>
