<svg xmlns="http://www.w3.org/2000/svg" width="80" height="35" viewBox="0 0 111.881 51.982"  xmlns:v="https://vecta.io/nano"><path d="M8.482 26.007c.01 9.546 7.746 17.282 17.292 17.293h16.152a1.9 1.9 0 0 0 1.8-1.795V9.817a3.63 3.63 0 0 1 6.752-1.854l20.29 34.985a1.51 1.51 0 0 0 2.8-.782V9.817a3.63 3.63 0 0 1 6.751-1.854l20.276 34.988a1.51 1.51 0 0 0 2.8-.782V.226h-6.366V25.19L85.116 4.7a9.64 9.64 0 0 0-17.917 4.945V25.19L55.29 4.7a9.64 9.64 0 0 0-17.917 4.945v25.546a1.7 1.7 0 0 1-1.713 1.742h-9.818a10.93 10.93 0 0 1-10.821-10.926 10.93 10.93 0 0 1 10.821-10.925h8.226V8.715h-8.294c-9.546.011-17.281 7.746-17.292 17.292M105.514.226v41.939a3.63 3.63 0 0 1-6.752 1.854L78.487 9.035a1.51 1.51 0 0 0-2.8.782v32.348a3.63 3.63 0 0 1-6.752 1.854L48.647 9.035a1.51 1.51 0 0 0-2.8.782v31.688c-.055 2.142-1.781 3.865-3.923 3.917H25.775c-10.722 0-19.414-8.692-19.414-19.414S15.053 6.593 25.775 6.593h8.292V.226h-8.285C16.533.168 7.962 5.07 3.32 13.07a25.78 25.78 0 0 0 22.462 38.719h16.306c6.177 0 10.15-3.616 10.141-10.292V26.792l11.909 20.494a9.64 9.64 0 0 0 17.916-4.945V26.792l11.91 20.493a9.64 9.64 0 0 0 17.917-4.945V.226z"/></svg>