<svg xmlns="http://www.w3.org/2000/svg" width="34px" height="34px" viewBox="0 0 28.285 28.285">
  <g id="Group_1063" data-name="Group 1063" transform="translate(-705 -1879.857)">
    <path id="Path" d="M10,0A10,10,0,1,0,20,10,9.991,9.991,0,0,0,10,0Z" transform="translate(719.143 1879.857) rotate(45)" fill="#505050"/>
    <path id="Path-2" data-name="Path" d="M5,6.41,1.41,10,0,8.59,3.59,5,5,3.59,8.59,0,10,1.41,6.41,5Z" transform="translate(719.143 1884.929) rotate(45)" fill="#fff"/>
    <path id="Path-3" data-name="Path" d="M5,6.41,1.41,10,0,8.59,3.59,5,5,3.59,8.59,0,10,1.41,6.41,5Z" transform="translate(719.143 1888.929) rotate(45)" fill="#fff"/>
  </g>
</svg>
