<svg xmlns="http://www.w3.org/2000/svg" width="61.751" height="69.814" viewBox="0 0 61.751 69.814"><path d="M26.317,33.793,21.032,38.8a25.5,25.5,0,0,1-6.663-10.366l7.221-1.728A18.763,18.763,0,0,0,26.317,33.793ZM27.695,12.6,17.272,2.729a1.915,1.915,0,0,0-2.643,0L4.244,12.6a1.754,1.754,0,0,0,1.34,3h6.737a50.107,50.107,0,0,0,.707,7.651l7.221-1.728a44.189,44.189,0,0,1-.484-5.924h6.626A1.75,1.75,0,0,0,27.695,12.6Zm37.224,0L54.533,2.764a1.915,1.915,0,0,0-2.643,0L41.5,12.6a1.736,1.736,0,0,0,1.3,3h6.626c-.372,12.976-4.765,16.748-9.455,20.733a31.322,31.322,0,0,0-5.4,5.465,25.707,25.707,0,0,0-4.206-4.372L25.126,42.4c3.462,3,5.732,5.43,5.732,11.988h0v14.1a3.639,3.639,0,0,0,3.722,3.526h0A3.639,3.639,0,0,0,38.3,68.488v-14.1h0c0-7.122,2.643-9.379,6.663-12.8,3.344-2.846,7.193-6.141,9.7-12.844A41.1,41.1,0,0,0,56.878,15.6h6.7A1.754,1.754,0,0,0,64.918,12.6Z" transform="translate(-3.705 -2.2)"/></svg>