<svg id="add_road-24px" xmlns="http://www.w3.org/2000/svg" width="55" height="55" viewBox="0 0 55 55">
  <g id="Group_1152" data-name="Group 1152">
    <rect id="Rectangle_762" data-name="Rectangle 762" width="55" height="55" fill="none"/>
    <rect id="Rectangle_763" data-name="Rectangle 763" width="55" height="55" fill="none"/>
  </g>
  <g id="Group_1154" data-name="Group 1154">
    <g id="Group_1153" data-name="Group 1153">
      <path id="Path_1903" data-name="Path 1903" d="M21.434,4h0A3.444,3.444,0,0,0,18,7.434V31.472a3.444,3.444,0,0,0,3.434,3.434h0a3.444,3.444,0,0,0,3.434-3.434V7.434A3.444,3.444,0,0,0,21.434,4Z" transform="translate(30.077 -4)"/>
      <path id="Path_1904" data-name="Path 1904" d="M7.434,58.945h0a3.444,3.444,0,0,0,3.434-3.434V7.434A3.444,3.444,0,0,0,7.434,4h0A3.444,3.444,0,0,0,4,7.434V55.511A3.444,3.444,0,0,0,7.434,58.945Z" transform="translate(-4 -4)"/>
      <path id="Path_2000" data-name="Path 2000" d="M7.434,58.945h0a3.444,3.444,0,0,0,3.434-3.434V7.434A3.444,3.444,0,0,0,7.434,4h0A3.444,3.444,0,0,0,4,7.434V55.511A3.444,3.444,0,0,0,7.434,58.945Z" transform="translate(44.076 -4)"/>
      <path id="Path_1905" data-name="Path 1905" d="M14.434,17.736h0A3.444,3.444,0,0,0,17.868,14.3V7.434A3.444,3.444,0,0,0,14.434,4h0A3.444,3.444,0,0,0,11,7.434V14.3A3.444,3.444,0,0,0,14.434,17.736Z" transform="translate(13.038 -4)"/>
      <path id="Path_1906" data-name="Path 1906" d="M14.434,23.736h0A3.444,3.444,0,0,0,17.868,20.3V13.434A3.444,3.444,0,0,0,14.434,10h0A3.444,3.444,0,0,0,11,13.434V20.3A3.444,3.444,0,0,0,14.434,23.736Z" transform="translate(13.038 10.604)"/>
      <path id="Path_1907" data-name="Path 1907" d="M14.434,29.736h0A3.444,3.444,0,0,0,17.868,26.3V19.434A3.444,3.444,0,0,0,14.434,16h0A3.444,3.444,0,0,0,11,19.434V26.3A3.444,3.444,0,0,0,14.434,29.736Z" transform="translate(13.038 25.209)"/>
    </g>
  </g>
</svg>
