<svg xmlns="http://www.w3.org/2000/svg" width="55" height="55" viewBox="0 0 55 55"><rect width="55" height="55" fill="none"/><rect width="55" height="55" fill="none"/><path d="M21.434,4h0A3.444,3.444,0,0,0,18,7.434V31.472a3.444,3.444,0,0,0,3.434,3.434h0a3.444,3.444,0,0,0,3.434-3.434V7.434A3.444,3.444,0,0,0,21.434,4Z" transform="translate(30.077 -4)"/><path d="M7.434,58.945h0a3.444,3.444,0,0,0,3.434-3.434V7.434A3.444,3.444,0,0,0,7.434,4h0A3.444,3.444,0,0,0,4,7.434V55.511A3.444,3.444,0,0,0,7.434,58.945Z" transform="translate(-4 -4)"/><path d="M7.434,58.945h0a3.444,3.444,0,0,0,3.434-3.434V7.434A3.444,3.444,0,0,0,7.434,4h0A3.444,3.444,0,0,0,4,7.434V55.511A3.444,3.444,0,0,0,7.434,58.945Z" transform="translate(44.076 -4)"/><path d="M14.434,17.736h0A3.444,3.444,0,0,0,17.868,14.3V7.434A3.444,3.444,0,0,0,14.434,4h0A3.444,3.444,0,0,0,11,7.434V14.3A3.444,3.444,0,0,0,14.434,17.736Z" transform="translate(13.038 -4)"/><path d="M14.434,23.736h0A3.444,3.444,0,0,0,17.868,20.3V13.434A3.444,3.444,0,0,0,14.434,10h0A3.444,3.444,0,0,0,11,13.434V20.3A3.444,3.444,0,0,0,14.434,23.736Z" transform="translate(13.038 10.604)"/><path d="M14.434,29.736h0A3.444,3.444,0,0,0,17.868,26.3V19.434A3.444,3.444,0,0,0,14.434,16h0A3.444,3.444,0,0,0,11,19.434V26.3A3.444,3.444,0,0,0,14.434,29.736Z" transform="translate(13.038 25.209)"/></svg>