<svg xmlns="http://www.w3.org/2000/svg" width="71.905" height="71.905" viewBox="0 0 71.905 71.905"><g transform="translate(0)"><path d="M0,0H71.905V71.905H0Z" transform="translate(0 0)" fill="none"/><path d="M4,46.7a9.326,9.326,0,0,0,3.371,7.089V57.88a4.922,4.922,0,0,0,5.056,4.79,4.922,4.922,0,0,0,5.056-4.79v-1.6H44.447v1.6a5.063,5.063,0,0,0,10.112,0V53.793A9.326,9.326,0,0,0,57.929,46.7V14.773C57.929,3.6,45.862,2,30.964,2S4,3.6,4,14.773ZM15.8,49.9a4.8,4.8,0,1,1,0-9.579,4.8,4.8,0,1,1,0,9.579Zm30.335,0a4.8,4.8,0,1,1,5.056-4.79A4.922,4.922,0,0,1,46.132,49.9Zm5.056-19.159H10.741V14.773H51.188Z" transform="translate(4.988 2.494)"/></g></svg>