<svg xmlns="http://www.w3.org/2000/svg" width="43.232" height="62.122" viewBox="0 0 43.232 62.122"><g transform="translate(-565 -428.813)"><circle cx="6.116" cy="6.116" r="6.116" transform="translate(581 428.813)"/><path d="M48.232,25.5V19.328a17.338,17.338,0,0,1-12.568-5.651L31.68,9.261A5.973,5.973,0,0,0,29.8,7.872c-.031,0-.031-.031-.062-.031H29.7a6.164,6.164,0,0,0-3.675-.8A6.3,6.3,0,0,0,20.44,13.43V31.68a6.194,6.194,0,0,0,6.176,6.176h15.44V53.3h6.176V36.312a6.194,6.194,0,0,0-6.176-6.176H32.792V19.483C36.775,22.787,42.828,25.473,48.232,25.5ZM29.179,40.944A9.267,9.267,0,1,1,17.352,29.117V22.725A15.442,15.442,0,1,0,35.571,40.944Z" transform="translate(560 437.64)"/></g></svg>