<svg xmlns="http://www.w3.org/2000/svg" width="59.976" height="43.983"  xmlns:v="https://vecta.io/nano"><path d="M58.368 17L45.2 1.822C44.245.684 42.841.019 41.356 0H5.452C2.454 0 0 2.8 0 6.283v21.991c0 3.456 2.454 6.283 5.452 6.283 0 5.215 3.653 9.425 8.179 9.425s8.179-4.21 8.179-9.425h16.357c0 5.215 3.653 9.425 8.179 9.425s8.179-4.21 8.179-9.425c3 0 5.452-2.827 5.452-6.283v-6.817A6.82 6.82 0 0 0 58.368 17zM5.452 15.708V9.425C5.35 7.809 6.564 6.41 8.178 6.283h8.179V18.85H8.179c-1.615-.127-2.829-1.526-2.727-3.142zm8.179 22.777a3.7 3.7 0 0 1-3.408-3.927 3.7 3.7 0 0 1 3.408-3.927 3.7 3.7 0 0 1 3.408 3.927 3.7 3.7 0 0 1-3.408 3.927zM32.714 18.85H21.81V6.283h10.9zm13.631 19.635a3.7 3.7 0 0 1-3.408-3.927 3.7 3.7 0 0 1 3.408-3.927 3.7 3.7 0 0 1 3.408 3.927 3.7 3.7 0 0 1-3.408 3.927zM38.167 18.85V6.283h2.726L51.8 18.85z"/></svg>