<svg xmlns="http://www.w3.org/2000/svg" width="57.667" height="57.667" viewBox="0 0 57.667 57.667"><g transform="translate(0 0)"><path d="M0,0H57.667V57.667H0Z" transform="translate(0 0)" fill="none"/><path d="M4,37.852a7.479,7.479,0,0,0,2.7,5.685v3.278a3.947,3.947,0,0,0,4.055,3.841,3.947,3.947,0,0,0,4.055-3.841v-1.28H36.438v1.28a4.061,4.061,0,0,0,8.109,0V43.537a7.479,7.479,0,0,0,2.7-5.685V12.243C47.25,3.28,37.573,2,25.625,2S4,3.28,4,12.243Zm9.461,2.561a3.847,3.847,0,1,1,0-7.683,3.847,3.847,0,1,1,0,7.683Zm24.328,0a3.847,3.847,0,1,1,4.055-3.841A3.947,3.947,0,0,1,37.789,40.413Zm4.055-15.365H9.406v-12.8H41.844Z" transform="translate(3.208 1.604)"/></g></svg>