<svg xmlns="http://www.w3.org/2000/svg" width="125.656" height="67.99" viewBox="0 0 125.656 67.99">
  <g id="Group_1441" data-name="Group 1441" transform="translate(-657.172 -422.838)">
    <g id="directions_bus-24px" transform="translate(657.172 428)">
      <path id="Path_1933" data-name="Path 1933" d="M0,0H57.667V57.667H0Z" transform="translate(0 0)" fill="none"/>
      <path id="Path_1934" data-name="Path 1934" d="M4,37.852a7.479,7.479,0,0,0,2.7,5.685v3.278a3.947,3.947,0,0,0,4.055,3.841,3.947,3.947,0,0,0,4.055-3.841v-1.28H36.438v1.28a4.061,4.061,0,0,0,8.109,0V43.537a7.479,7.479,0,0,0,2.7-5.685V12.243C47.25,3.28,37.573,2,25.625,2S4,3.28,4,12.243Zm9.461,2.561a3.847,3.847,0,1,1,0-7.683,3.847,3.847,0,1,1,0,7.683Zm24.328,0a3.847,3.847,0,1,1,4.055-3.841A3.947,3.947,0,0,1,37.789,40.413Zm4.055-15.365H9.406v-12.8H41.844Z" transform="translate(3.208 1.604)"/>
    </g>
    <g id="person-24px" transform="translate(714.838 422.838)">
      <path id="Path_2079" data-name="Path 2079" d="M0,0H67.99V67.99H0Z" fill="none"/>
      <path id="Path_2080" data-name="Path 2080" d="M26.663,26.663A11.332,11.332,0,1,0,15.332,15.332,11.329,11.329,0,0,0,26.663,26.663Zm0,5.666C19.1,32.329,4,36.125,4,43.661v5.666H49.327V43.661C49.327,36.125,34.227,32.329,26.663,32.329Z" transform="translate(7.332 7.332)"/>
    </g>
  </g>
</svg>
