<svg xmlns="http://www.w3.org/2000/svg" width="57.667" height="57.667"  xmlns:v="https://vecta.io/nano"><path d="M7.208 39.456a7.48 7.48 0 0 0 2.7 5.685v3.278c.028 1.047.471 2.041 1.231 2.761s1.776 1.109 2.824 1.08c1.047.029 2.063-.359 2.824-1.08s1.204-1.714 1.231-2.761v-1.28h21.628v1.28a4.06 4.06 0 0 0 8.109 0v-3.278a7.48 7.48 0 0 0 2.7-5.685V13.847c.003-8.963-9.674-10.243-21.622-10.243S7.208 4.884 7.208 13.847zm9.461 2.561c-1.421.076-2.769-.639-3.502-1.859s-.734-2.745 0-3.965 2.081-1.935 3.502-1.859c1.421-.076 2.769.639 3.502 1.859s.734 2.745 0 3.965-2.081 1.935-3.502 1.859zm24.328 0a3.85 3.85 0 0 1-3.636-3.98 3.85 3.85 0 0 1 3.914-3.708 3.85 3.85 0 0 1 3.777 3.847c-.028 1.047-.471 2.041-1.231 2.761s-1.776 1.109-2.824 1.08zm4.055-15.365H12.614v-12.8h32.438z"/></svg>