<svg xmlns="http://www.w3.org/2000/svg" xmlns:xlink="http://www.w3.org/1999/xlink" width="55" height="55" xmlns:v="https://vecta.io/nano"><path d="M51.511 0h0c-1.894.005-3.429 1.54-3.434 3.434v24.038c.005 1.894 1.54 3.429 3.434 3.434h0c1.894-.005 3.429-1.54 3.434-3.434V3.434C54.94 1.54 53.405.005 51.511 0zM3.434 54.945h0c1.894-.005 3.429-1.54 3.434-3.434V3.434C6.863 1.54 5.328.005 3.434 0h0C1.54.005.005 1.54 0 3.434v48.077c.005 1.894 1.54 3.429 3.434 3.434z"/><path d="M51.51 54.945h0c1.894-.005 3.429-1.54 3.434-3.434V3.434C54.939 1.54 53.404.005 51.51 0h0c-1.894.005-3.429 1.54-3.434 3.434v48.077c.005 1.894 1.54 3.429 3.434 3.434zM27.472 13.736h0c1.895-.005 3.43-1.541 3.434-3.436V3.434C30.901 1.54 29.366.005 27.472 0h0c-1.894.005-3.429 1.54-3.434 3.434V10.3c.004 1.895 1.539 3.431 3.434 3.436z"/><use xlink:href="#A"/><use xlink:href="#A" y="20.605"/><defs><path id="A" d="M27.472 34.34h0c1.895-.005 3.43-1.541 3.434-3.436v-6.866c-.005-1.894-1.54-3.429-3.434-3.434h0c-1.894.005-3.429 1.54-3.434 3.434v6.866c.004 1.895 1.539 3.431 3.434 3.436z"/></defs></svg>