<svg xmlns="http://www.w3.org/2000/svg" width="59.976" height="43.983" viewBox="0 0 59.976 43.983">
  <path id="Path_1928" data-name="Path 1928" d="M59.368,22,46.2,6.822A5.106,5.106,0,0,0,42.356,5H6.452C3.454,5,1,7.8,1,11.283V33.274c0,3.456,2.454,6.283,5.452,6.283,0,5.215,3.653,9.425,8.179,9.425s8.179-4.21,8.179-9.425H39.167c0,5.215,3.653,9.425,8.179,9.425s8.179-4.21,8.179-9.425c3,0,5.452-2.827,5.452-6.283V26.457A6.82,6.82,0,0,0,59.368,22ZM6.452,20.708V14.425a2.965,2.965,0,0,1,2.726-3.142h8.179V23.85H9.179A2.965,2.965,0,0,1,6.452,20.708Zm8.179,22.777a3.7,3.7,0,0,1-3.408-3.927,3.7,3.7,0,0,1,3.408-3.927,3.7,3.7,0,0,1,3.408,3.927A3.7,3.7,0,0,1,14.631,43.485ZM33.714,23.85H22.81V11.283h10.9ZM47.345,43.485a3.7,3.7,0,0,1-3.408-3.927,3.7,3.7,0,0,1,3.408-3.927,3.7,3.7,0,0,1,3.408,3.927A3.7,3.7,0,0,1,47.345,43.485ZM39.167,23.85V11.283h2.726L52.8,23.85Z" transform="translate(-1 -5)"/>
</svg>
