<svg xmlns="http://www.w3.org/2000/svg" xmlns:xlink="http://www.w3.org/1999/xlink" width="189.814" height="89.021" viewBox="6 0 189.814 89.021">
  <defs>
    <filter id="Rectangle" x="0" y="16.937" width="12" height="16.909" filterUnits="userSpaceOnUse">
      <feOffset dy="2" input="SourceAlpha"/>
      <feGaussianBlur stdDeviation="2" result="blur"/>
      <feFlood flood-opacity="0.2"/>
      <feComposite operator="in" in2="blur"/>
      <feComposite in="SourceGraphic"/>
    </filter>
    <clipPath id="clip-path">
      <rect id="FAB_Mask" data-name="FAB Mask" width="183" height="40" rx="20" transform="translate(-0.122)" fill="none"/>
    </clipPath>
  </defs>
  <g id="Group_1149" data-name="Group 1149" transform="translate(5.715 0)">
    <g id="Group_1048" data-name="Group 1048" transform="translate(0.285 0.938)">
      <g id="Container" transform="translate(-0.163)">
        <g id="Light_Elevation_00dp" data-name="Light ðŸŒ•/Elevation/00dp" transform="translate(0.163 20)">
          <g id="Shadow" style="mix-blend-mode: multiply;isolation: isolate">
            <g transform="matrix(1, 0, 0, 1, -6, -20.94)" filter="url(#Rectangle)">
              <path id="Rectangle-2" data-name="Rectangle" d="M0,20Z" transform="translate(6 0.94)" fill="none"/>
            </g>
          </g>
        </g>
        <rect id="_FAB_Color" data-name="ðŸŽ¨ FAB Color" width="183" height="40" transform="translate(-0.122)" fill="none"/>
      </g>
      <text id="_Label" data-name="â†³ âœï¸ Label" transform="translate(53.715 25)" font-size="14" font-family="Roboto-Medium, Roboto" font-weight="500" letter-spacing="0.089em"><tspan x="0" y="0">REGISTER </tspan></text>
    </g>
    <g id="Group_1051" data-name="Group 1051" transform="translate(-143 -1031.063)">
      <g id="Rectangle_713" data-name="Rectangle 713" transform="translate(327.1 1120.084) rotate(180)" fill="none" stroke="#333" stroke-miterlimit="10" stroke-width="1">
        <path d="M89.021,0h5.935a89.021,89.021,0,0,1,89.021,89.021v0a0,0,0,0,1,0,0H0a0,0,0,0,1,0,0v0A89.021,89.021,0,0,1,89.021,0Z" stroke="none"/>
        <path d="M88.027.5H95.95a87.527,87.527,0,0,1,87.527,87.527v0a.494.494,0,0,1-.494.494H.994A.494.494,0,0,1,.5,88.027v0A87.527,87.527,0,0,1,88.027.5Z" fill="none"/>
      </g>
    </g>
  </g>
</svg>
