<svg xmlns="http://www.w3.org/2000/svg" xmlns:xlink="http://www.w3.org/1999/xlink" width="218" height="89.021" viewBox="0 0 218 89.021">
  <defs>
    <filter id="Rectangle" x="9" y="25.629" width="200" height="52" filterUnits="userSpaceOnUse">
      <feOffset dy="2" input="SourceAlpha"/>
      <feGaussianBlur stdDeviation="2" result="blur"/>
      <feFlood flood-opacity="0.2"/>
      <feComposite operator="in" in2="blur"/>
      <feComposite in="SourceGraphic"/>
    </filter>
    <filter id="Rectangle-2" x="0" y="15.629" width="218" height="70" filterUnits="userSpaceOnUse">
      <feOffset dy="1" input="SourceAlpha"/>
      <feGaussianBlur stdDeviation="5" result="blur-2"/>
      <feFlood flood-opacity="0.122"/>
      <feComposite operator="in" in2="blur-2"/>
      <feComposite in="SourceGraphic"/>
    </filter>
    <filter id="Rectangle-3" x="7.5" y="26.129" width="203" height="55" filterUnits="userSpaceOnUse">
      <feOffset dy="4" input="SourceAlpha"/>
      <feGaussianBlur stdDeviation="2.5" result="blur-3"/>
      <feFlood flood-opacity="0.141"/>
      <feComposite operator="in" in2="blur-3"/>
      <feComposite in="SourceGraphic"/>
    </filter>
    <clipPath id="clip-path">
      <rect id="FAB_Mask" data-name="FAB Mask" width="188" height="40" rx="20" fill="none"/>
    </clipPath>
  </defs>
  <g id="Group_1143" data-name="Group 1143" transform="translate(-196 -5537.371)">
    <g id="Group_1142" data-name="Group 1142">
      <g id="Group_1141" data-name="Group 1141">
        <g id="Rectangle_732" data-name="Rectangle 732" transform="translate(213.436 5537.371)" fill="#fff" stroke="#fff" stroke-miterlimit="10" stroke-width="1">
          <path d="M89.021,0h5.935a89.021,89.021,0,0,1,89.021,89.021v0a0,0,0,0,1,0,0H0a0,0,0,0,1,0,0v0A89.021,89.021,0,0,1,89.021,0Z" stroke="none"/>
          <path d="M88.027.5H95.95a87.527,87.527,0,0,1,87.527,87.527v0a.494.494,0,0,1-.494.494H.994A.494.494,0,0,1,.5,88.027v0A87.527,87.527,0,0,1,88.027.5Z" fill="none"/>
        </g>
      </g>
    </g>
    <g id="Light_FAB_2._Extended_Hover" data-name="Light ðŸŒ•/ FAB / 2. Extended/Hover" transform="translate(211 5567)">
      <g id="Group_891" data-name="Group 891" transform="translate(0)">
        <g id="Container">
          <g id="Light_Elevation_00dp" data-name="Light ðŸŒ•/Elevation/00dp" transform="translate(0)">
            <g id="Shadow" style="mix-blend-mode: multiply;isolation: isolate">
              <g transform="matrix(1, 0, 0, 1, -15, -29.63)" filter="url(#Rectangle)">
                <rect id="Rectangle-4" data-name="Rectangle" width="188" height="40" rx="20" transform="translate(15 29.63)" fill="none"/>
              </g>
              <g transform="matrix(1, 0, 0, 1, -15, -29.63)" filter="url(#Rectangle-2)">
                <rect id="Rectangle-5" data-name="Rectangle" width="188" height="40" rx="20" transform="translate(15 29.63)" fill="none"/>
              </g>
              <g transform="matrix(1, 0, 0, 1, -15, -29.63)" filter="url(#Rectangle-3)">
                <rect id="Rectangle-6" data-name="Rectangle" width="188" height="40" rx="20" transform="translate(15 29.63)" fill="none"/>
              </g>
            </g>
          </g>
          <rect id="_FAB_Color" data-name="ðŸŽ¨ FAB Color" width="188" height="40" fill="none"/>
        </g>
        <text id="_Label" data-name="â†³ âœï¸ Label" transform="translate(52 25)" fill="#333" font-size="14" font-family="Roboto-Medium, Roboto" font-weight="500" letter-spacing="0.089em"><tspan x="0" y="0">REGISTER</tspan></text>
      </g>
    </g>
  </g>
</svg>
