<svg id="techcrunch-seeklogo.com_Converted_" data-name="techcrunch-seeklogo.com [Converted]" xmlns="http://www.w3.org/2000/svg" width="200" height="28" viewBox="0 0 208.811 29.859">
  <rect id="Rectangle_768" data-name="Rectangle 768" width="19.519" height="9.955" transform="translate(39.039)" fill="#231f20"/>
  <path id="Path_1962" data-name="Path 1962" d="M0,0V9.955H9.76v19.9h9.76V9.955h9.76V0Z" fill="#231f20"/>
  <path id="Path_1963" data-name="Path 1963" d="M40.38,33.634H69.666V23.678H50.14V13.73H40.38Z" transform="translate(-11.101 -3.775)" fill="#231f20"/>
  <path id="Path_1964" data-name="Path 1964" d="M109.642,10.38H95.3v4.133h4.8V27.507h4.742V14.513h4.8Z" transform="translate(-26.199 -2.854)" fill="#231f20"/>
  <path id="Path_1965" data-name="Path 1965" d="M137.773,31.61c-3.372,0-5.873,2.277-5.873,6.707,0,3.937,2.132,6.678,6,6.678a9.9,9.9,0,0,0,5.235-1.45l-1.682-2.813a6.649,6.649,0,0,1-3.328.906,2.03,2.03,0,0,1-2.175-2.052h7.541V38.73C143.494,33.938,141.29,31.61,137.773,31.61Zm-1.834,5.213c.152-1.276.725-1.958,1.718-1.958,1.291,0,1.733.66,1.958,1.958Z" transform="translate(-48.921 -20.074)" fill="#231f20"/>
  <path id="Path_1966" data-name="Path 1966" d="M157.061,41.434c-1.2,0-1.813-1.051-1.813-3.082s.566-3.154,1.689-3.154c.957,0,1.37.537,1.979,1.66l3.038-2.3a5.348,5.348,0,0,0-4.945-2.9c-4.111,0-6.12,2.719-6.12,6.656,0,4.351,2.255,6.729,6.025,6.729,2.277,0,3.669-.856,5.163-3.06l-2.792-2.175C158.482,40.97,157.894,41.434,157.061,41.434Z" transform="translate(-54.141 -20.088)" fill="#231f20"/>
  <path id="Path_1967" data-name="Path 1967" d="M177.425,29.82a4.916,4.916,0,0,0-3.227,1.124V25.1l-4.409,1.762V42.937H174.2V35.592c0-1.61.558-2.052,1.494-2.052s1.45.442,1.45,2.1v7.294h4.43V35.084C181.587,31.706,180.239,29.82,177.425,29.82Z" transform="translate(-59.337 -18.284)" fill="#231f20"/>
  <path id="Path_1968" data-name="Path 1968" d="M197.727,39.226c-2.059,0-2.9-2.081-2.9-4.7s.856-4.7,2.842-4.7c1.566,0,2.175,1,2.763,2.589l4.307-1.682c-1.175-3.234-2.835-5.076-7.048-5.076-4.6,0-7.831,3.328-7.831,8.839,0,5.076,2.719,8.832,7.809,8.832a7.367,7.367,0,0,0,7.12-4.43l-4.01-2.117C199.852,38.414,199.214,39.226,197.727,39.226Z" transform="translate(-64.855 -18.438)" fill="#231f20"/>
  <path id="Path_1969" data-name="Path 1969" d="M218.541,32.806v-.914h-4.4V44.727h4.4v-7c0-1.566.66-2.081,1.74-2.081a2.763,2.763,0,0,1,2.052,1.073l1.03-4.575a3.952,3.952,0,0,0-4.822.66Z" transform="translate(-71.529 -20.074)" fill="#231f20"/>
  <path id="Path_1970" data-name="Path 1970" d="M237.141,39.331c0,1.61-.566,2.052-1.45,2.052s-1.45-.442-1.45-2.1V32h-4.43v7.838c0,3.379,1.349,5.264,4.162,5.264a4.851,4.851,0,0,0,3.2-1.124v.856h4.372V32h-4.43Z" transform="translate(-75.837 -20.181)" fill="#231f20"/>
  <path id="Path_1971" data-name="Path 1971" d="M258.105,31.61a4.952,4.952,0,0,0-3.234,1.124v-.841h-4.4V44.727h4.4V37.381c0-1.61.566-2.052,1.494-2.052s1.45.442,1.45,2.1v7.294h4.43V36.874C262.253,33.495,260.9,31.61,258.105,31.61Z" transform="translate(-81.517 -20.073)" fill="#231f20"/>
  <path id="Path_1972" data-name="Path 1972" d="M276.461,41.434c-1.2,0-1.813-1.051-1.813-3.082s.566-3.154,1.689-3.154c.957,0,1.37.537,1.98,1.66l3.038-2.3a5.348,5.348,0,0,0-4.945-2.9c-4.111,0-6.12,2.719-6.12,6.656,0,4.351,2.255,6.729,6.026,6.729,2.27,0,3.669-.856,5.163-3.06l-2.792-2.175C277.882,40.97,277.331,41.434,276.461,41.434Z" transform="translate(-86.966 -20.088)" fill="#231f20"/>
  <path id="Path_1973" data-name="Path 1973" d="M296.825,29.82a4.916,4.916,0,0,0-3.227,1.124V25.1l-4.409,1.762V42.937H293.6V35.592c0-1.61.558-2.052,1.494-2.052s1.45.442,1.45,2.1v7.294h4.43V35.084C300.987,31.706,299.639,29.82,296.825,29.82Z" transform="translate(-92.161 -18.284)" fill="#231f20"/>
</svg>
