<svg xmlns="http://www.w3.org/2000/svg" xmlns:xlink="http://www.w3.org/1999/xlink" width="200" height="28" viewBox="0 0 208.811 29.859" xmlns:v="https://vecta.io/nano"><g fill="#231f20"><path d="M39.039 0h19.519v9.955H39.039zM0 0v9.955h9.76v19.9h9.76v-19.9h9.76V0z"/><path d="M29.279 29.859h29.286v-9.956H39.039V9.955h-9.76zM83.443 7.526H69.101v4.133h4.8v12.994h4.742V11.659h4.8zm5.409 4.01c-3.372 0-5.873 2.277-5.873 6.707 0 3.937 2.132 6.678 6 6.678a9.9 9.9 0 0 0 5.235-1.45l-1.682-2.813a6.65 6.65 0 0 1-3.328.906 2.03 2.03 0 0 1-2.175-2.052h7.541v-.856c.003-4.792-2.201-7.12-5.718-7.12zm-1.834 5.213c.152-1.276.725-1.958 1.718-1.958 1.291 0 1.733.66 1.958 1.958zm15.902 4.597c-1.2 0-1.813-1.051-1.813-3.082s.566-3.154 1.689-3.154c.957 0 1.37.537 1.979 1.66l3.038-2.3a5.35 5.35 0 0 0-4.945-2.9c-4.111 0-6.12 2.719-6.12 6.656 0 4.351 2.255 6.729 6.025 6.729 2.277 0 3.669-.856 5.163-3.06l-2.792-2.175c-.803 1.162-1.391 1.626-2.224 1.626z"/><use xlink:href="#A"/><path d="M132.872 20.788c-2.059 0-2.9-2.081-2.9-4.7s.856-4.7 2.842-4.7c1.566 0 2.175 1 2.763 2.589l4.307-1.682c-1.175-3.234-2.835-5.076-7.048-5.076-4.6 0-7.831 3.328-7.831 8.839 0 5.076 2.719 8.832 7.809 8.832 3.064.15 5.901-1.615 7.12-4.43l-4.01-2.117c-.927 1.633-1.565 2.445-3.052 2.445zm14.14-8.056v-.914h-4.4v12.835h4.4v-7c0-1.566.66-2.081 1.74-2.081.808.04 1.558.432 2.052 1.073l1.03-4.575a3.95 3.95 0 0 0-4.822.66zm14.292 6.418c0 1.61-.566 2.052-1.45 2.052s-1.45-.442-1.45-2.1v-7.283h-4.43v7.838c0 3.379 1.349 5.264 4.162 5.264a4.85 4.85 0 0 0 3.2-1.124v.856h4.372V11.819h-4.43zm15.284-7.613a4.95 4.95 0 0 0-3.234 1.124v-.841h-4.4v12.834h4.4v-7.346c0-1.61.566-2.052 1.494-2.052s1.45.442 1.45 2.1v7.294h4.43v-7.849c.008-3.379-1.345-5.264-4.14-5.264zm12.907 9.809c-1.2 0-1.813-1.051-1.813-3.082s.566-3.154 1.689-3.154c.957 0 1.37.537 1.98 1.66l3.038-2.3a5.35 5.35 0 0 0-4.945-2.9c-4.111 0-6.12 2.719-6.12 6.656 0 4.351 2.255 6.729 6.026 6.729 2.27 0 3.669-.856 5.163-3.06l-2.792-2.175c-.805 1.162-1.356 1.626-2.226 1.626z"/><use xlink:href="#A" x="86.576"/></g><defs><path id="A" d="M118.088 11.536a4.92 4.92 0 0 0-3.227 1.124V6.816l-4.409 1.762v16.075h4.411v-7.345c0-1.61.558-2.052 1.494-2.052s1.45.442 1.45 2.1v7.294h4.43V16.8c.013-3.378-1.335-5.264-4.149-5.264z"/></defs></svg>