<?xml version="1.0" encoding="UTF-8" standalone="no"?>
<svg
   xmlns:dc="http://purl.org/dc/elements/1.1/"
   xmlns:cc="http://creativecommons.org/ns#"
   xmlns:rdf="http://www.w3.org/1999/02/22-rdf-syntax-ns#"
   xmlns:svg="http://www.w3.org/2000/svg"
   xmlns="http://www.w3.org/2000/svg"
   viewBox="0 0 7888 1329.4933"
   height="30"
   width="181"
   xml:space="preserve"
   id="svg2"
   version="1.1"><metadata
     id="metadata8"><rdf:RDF><cc:Work
         rdf:about=""><dc:format>image/svg+xml</dc:format><dc:type
           rdf:resource="http://purl.org/dc/dcmitype/StillImage" /></cc:Work></rdf:RDF></metadata><defs
     id="defs6" /><g
     transform="matrix(1.3333333,0,0,-1.3333333,0,1329.4933)"
     id="g10"><g
       transform="scale(0.1)"
       id="g12"><g
         transform="scale(3.25692)"
         id="g14"><path
           id="path16"
           style="fill:#100f0d;fill-opacity:1;fill-rule:nonzero;stroke:none"
           d="M 7756.68,180.533 C 7323.42,1217.18 6577.84,2897.19 6521.13,2964.6 l -74.76,88.8 h 1051.76 c 578.43,0 1051.7,-10.55 1051.64,-23.48 -0.07,-12.9 -61.5,-185.52 -136.54,-383.57 l -136.42,-360.09 -239.22,-9.14 c -131.56,-5.01 -239.24,-14.47 -239.24,-20.95 0,-29.62 293.34,-818.12 312.47,-839.85 11.88,-13.49 159.82,349.32 328.78,806.29 l 307.19,830.79 H 11180 v -457.34 c 0,-424.34 -3.9,-455.56 -54.7,-432.16 -30.2,13.87 -220.4,30.65 -422.8,37.26 l -367.9,12.08 V 1887 l 266.2,13.97 266.1,13.96 v -732.66 l -138.5,29.56 c -76.2,16.25 -192.5,25.11 -258.4,19.69 l -119.7,-9.86 -9.4,-180.05 -9.4,-180.042 h 279.4 c 168.4,0 332.4,18.696 412.6,46.971 73.2,25.832 138.4,46.969 144.8,46.969 6.5,0 11.7,-197.27 11.7,-438.369 V 78.771 h -911.8 c -747.06,0 -905.77,7.3905 -877.95,40.925 37.37,45.028 67.95,2213.594 31.2,2213.564 -11.43,-0.03 -236.51,-507.28 -500.2,-1127.26 L 8441.81,78.771 h -642.63 l -42.5,101.762 z M 4201.49,130.497 c 65.3,78.655 80.32,2608.503 16.61,2793.493 l -44.59,129.41 h 1808.77 v -867.59 l -164.39,43.12 c -92.79,24.3 -273.51,39.36 -414.9,34.57 l -250.48,-8.55 -9.52,-184.05 -9.52,-184.05 267.83,14.03 267.86,14.05 v -732.66 l -138.57,29.56 c -76.17,16.25 -192.45,25.11 -258.31,19.69 l -119.77,-9.86 -9.58,-167.8 -9.61,-167.806 354.04,15.439 c 194.7,8.483 385.7,25.801 424.45,38.417 l 70.47,22.92 V 78.771 H 5070.4 c -844.41,0 -908.74,3.82 -868.91,51.726 z M 1661.22,1566.09 V 3053.4 h 1283.79 v -866.21 l -172.21,14.28 -172.22,14.28 V 1894.86 H 3132.9 V 3053.4 h 939.35 V 78.771 H 3071.83 l 30.52,80.315 c 16.82,44.18 30.58,290.763 30.58,547.959 v 467.645 h -535.32 l 9.55,-493.165 c 5.23,-271.223 21.51,-517.803 36.13,-547.96 24.8,-51.0052 -8.11,-54.794 -477.69,-54.794 H 1661.22 V 1566.09 Z M 522.503,133.565 c 14.59,30.157 30.903,510.669 36.289,1067.805 l 9.77,1013 L 284.281,2203.35 0,2192.33 l 8.64146,422.71 8.67504,422.71 728.0015,8.42 728.002,8.42 V 78.771 H 984.698 c -454.679,0 -486.869,3.82 -462.195,54.794 z M 14927.1,16.5525 c -528.6,92.4645 -967.3,444.2845 -1166.1,935.3805 -102.5,252.937 -137.1,686.577 -75.7,946.847 87.3,370.51 322.5,709.4 628.4,905.73 271.5,174.15 486.2,223.31 1054.3,241.1 l 508.8,15.94 V 1996.06 l -195.7,79.72 c -128.5,52.36 -276.2,84.2 -430.5,92.84 -219.2,12.25 -244.6,6.8 -382.1,-81.72 -197,-126.88 -287.8,-301.63 -289.7,-557.26 -1.2,-165.7 12.1,-212.14 93.8,-328.5 126.9,-180.48 299.6,-275.917 499.7,-275.917 207.8,-0.057 241.4,25.522 229.2,174.377 l -10,122.05 -242.6,-1.56 -242.7,-1.56 -0.1,345.99 v 346 l 657.6,-9.02 657.6,-9.05 v -636.01 c 0,-386.572 13.7,-675.24 34.8,-736.077 43.9,-125.874 2.8,-176.943 -251.5,-312.464 C 15698.2,44.5458 15236.1,-37.4863 14927.1,16.5525 v 0" /></g><g
         transform="scale(3.62945)"
         id="g18"><path
           id="path20"
           style="fill:#100f0d;fill-opacity:1;fill-rule:nonzero;stroke:none"
           d="m 14686.8,119.856 c 30.8,62.94 31.7,2472.574 1,2557.374 l -23.1,63.67 809.8,-7.47 809.8,-7.48 7.9,-388.48 7.8,-388.49 -64,20.52 c -155.7,49.93 -275.2,66.76 -478.5,67.37 l -217.8,0.65 v -344.23 l 238.9,12.53 238.8,12.53 V 1383.2 c 0,-307.73 -4,-333.58 -49.2,-316.04 -27,10.47 -133.1,26.21 -235.8,34.92 l -186.8,15.82 -9.9,-147.907 c -7,-103.318 1,-152.125 26.7,-161.986 47.7,-18.292 590.6,11.098 672.7,36.416 l 63.3,19.472 V 70.6859 h -817.9 c -769.3,0 -816.4,2.9199 -793.7,49.1701 z m -3581,1917.134 c 27.1,-1.69 66.2,-17.03 122.1,-40.41 167.3,-69.9 201.2,-252.74 71.1,-382.83 -55.2,-55.19 -110.5,-81.65 -168.6,-81.65 h -86 v 252.88 c 0,193.17 1.9,255.69 61.4,252.01 z m -964.9,703.35 22.8,-63.22 c 30.6,-84.44 29.8,-2494.153 -0.9,-2556.925 -22.5,-45.8563 8.3,-49.1701 457.5,-49.1701 467.4,0 481.3,1.7134 453,54.4511 -15.9,29.898 -28.9,207.647 -28.9,395.116 0,340.352 0.1,340.913 63.2,322.259 118.2,-34.898 272.8,-153.755 347.7,-266.934 84.5,-127.678 118.8,-351.114 68.5,-445.183 l -32.5,-59.7091 h 480.3 c 281,0 473.7,10.5356 464.5,25.4559 -8.7,14.0482 -38.7,164.2582 -67.6,333.6612 -63.7,373.143 -177.7,610.548 -359.1,748.978 l -120.3,92.2 68.5,92.18 c 229.2,310.71 192.6,830.41 -77.3,1100.21 -219.5,219.56 -469.5,275.42 -1224.9,275.7 l -514.5,0.93" /></g></g></g></svg>