<svg xmlns="http://www.w3.org/2000/svg" viewBox="0 0 7888 1329.493" height="28" width="181"  fill="#100f0d" xmlns:v="https://vecta.io/nano"><path d="M3368.376 1251.096C3180.231 800.927 2856.459 71.374 2831.833 42.101l-32.465-38.562H3256.1c251.186 0 456.706 4.581 456.68 10.196-.03 5.602-26.707 80.563-59.293 166.567l-59.241 156.371-103.882 3.969c-57.131 2.176-103.891 6.284-103.891 9.098 0 12.863 127.384 355.273 135.692 364.709 5.159 5.858 69.403-151.694 142.774-350.135L3798.337 3.539H4854.97v198.602c0 184.272-1.694 197.829-23.754 187.668-13.114-6.023-95.71-13.31-183.603-16.18l-159.762-5.246v141.671l231.154-12.129v318.161l-60.144-12.837c-33.09-7.057-83.594-10.904-112.211-8.55l-51.98 4.282-8.164 156.372h121.331c73.129 0 144.346-8.119 179.174-20.397 31.787-11.218 60.101-20.397 62.88-20.397 2.823 0 5.081 85.665 5.081 190.364v190.363h-395.954c-324.414 0-393.335-3.209-381.254-17.772 16.228-19.554 29.508-961.264 13.549-961.251-4.964.013-102.706 220.289-217.214 489.518L3665.9 1295.286h-279.065l-18.456-44.191zm-1543.859 21.728c28.357-34.156 34.879-1132.755 7.213-1213.088l-19.363-56.197h785.467v376.755l-71.387-18.725c-40.295-10.552-118.773-17.092-180.172-15.012l-108.772 3.713-8.268 159.849 232.626-12.194v318.161l-60.175-12.837c-33.077-7.057-83.572-10.904-112.172-8.55l-52.011 4.282-8.333 145.739 153.744-6.704c84.549-3.684 167.492-11.204 184.319-16.683l30.602-9.953v383.907h-395.988c-366.689 0-394.625-1.659-377.328-22.462zM721.393 649.411V3.539h557.492v376.156l-149.57-12.402v139.348h231.163V3.539h407.917v1291.747h-434.437l13.253-34.877c7.304-19.185 13.28-126.265 13.28-237.954V819.378h-232.465l4.147 214.159c2.271 117.78 9.341 224.858 15.69 237.954 10.77 22.149-3.522 23.795-207.439 23.795H721.393V649.411zM226.9 1271.492c6.336-13.096 13.42-221.761 15.759-463.7l4.243-439.9L0 377.463 7.52 10.335l632.277-7.313v1292.264H427.61c-197.447 0-211.425-1.659-200.71-23.795zm6255.267 50.813c-229.547-40.153-420.055-192.933-506.385-406.194-44.511-109.839-59.536-298.149-32.873-411.173 37.91-160.896 140.047-308.06 272.886-393.318 117.9-75.625 211.135-96.973 457.835-104.699L6894.578 0v462.694l-84.984-34.619c-55.802-22.738-119.941-36.564-186.947-40.316-95.189-5.32-106.219-2.953-165.929 35.487-85.548 55.098-124.979 130.984-125.804 241.993-.521 71.956 5.254 92.123 40.733 142.653 55.107 78.374 130.103 119.818 216.997 119.818 90.238.025 104.829-11.083 99.531-75.724l-4.343-53.001-210.744 1.355-.043-300.5 571.132 7.847v276.19c0 167.871 5.949 293.226 15.112 319.645 19.064 54.661 1.216 76.838-109.215 135.689-133.056 70.937-333.725 106.56-467.91 83.093h0m625.152-50.812c14.905-30.458 15.34-1196.542.484-1237.578l-11.179-30.812 783.766 7.235 3.823 187.995 3.775 188-30.971-9.93c-75.347-24.162-133.176-32.307-231.558-32.602l-105.399-.315v166.582l231.171-12.127v162.188c0 148.918-1.936 161.428-23.809 152.94-13.066-5.067-64.41-12.684-114.11-16.899l-90.397-7.656-4.791 71.576c-3.387 49.998.484 73.617 12.921 78.389 23.083 8.852 285.806-5.371 325.537-17.623l30.632-9.423v383.854h-395.803c-372.284 0-395.077-1.413-384.092-23.795zm-1732.937-927.75c13.114.818 32.036 8.241 59.087 19.555 80.961 33.826 97.366 122.307 34.407 185.261-26.713 26.708-53.474 39.513-81.59 39.513h-41.618V465.696c0-93.48.919-123.735 29.713-121.954zM4907.44 3.373l11.034 30.594c14.808 40.863 14.421 1206.984-.436 1237.361-10.888 22.191 4.017 23.795 221.396 23.795 226.187 0 232.913-.829 219.218-26.35-7.694-14.468-13.985-100.486-13.985-191.207 0-164.705.048-164.976 30.584-155.949 57.2 16.888 132.015 74.406 168.261 129.176 40.892 61.787 57.49 169.913 33.149 215.435l-15.728 28.895h232.429c135.983 0 229.235-5.098 224.783-12.319-4.21-6.798-18.728-79.489-32.713-161.467-30.826-180.573-85.994-295.46-173.778-362.45l-58.216-44.618 33.149-44.608c110.916-150.36 93.204-401.857-37.407-532.42C5642.958 30.991 5521.977 3.959 5156.419 3.823l-248.98-.45"/></svg>