<svg xmlns="http://www.w3.org/2000/svg" fill="#ffffff" width="24" height="24"  xmlns:v="https://vecta.io/nano"><path d="M24 4.301c-.898.398-1.801.699-2.801.801 1-.602 1.801-1.602 2.199-2.703-1 .602-2 1-3.098 1.203C19.301 2.602 18 2 16.602 2a4.91 4.91 0 0 0-4.902 4.898c0 .402 0 .801.102 1.102-4.102-.199-7.699-2.102-10.102-5.102C1.199 3.602 1 4.5 1 5.398c0 1.703.898 3.203 2.199 4.102-.801-.102-1.598-.301-2.199-.602V9c0 2.398 1.699 4.398 3.898 4.801-.398.098-.797.199-1.297.199-.301 0-.602 0-.902-.102.602 2 2.402 3.402 4.602 3.402-1.699 1.301-3.801 2.098-6.102 2.098-.398 0-.801 0-1.199-.098C2.199 20.699 4.801 21.5 7.5 21.5c9.102 0 14-7.5 14-14v-.602c1-.699 1.801-1.598 2.5-2.598"/></svg>