<svg xmlns="http://www.w3.org/2000/svg" width="122.329" height="30" viewBox="0 0 122.329 36.362"  fill-rule="evenodd" xmlns:v="https://vecta.io/nano"><path d="M122.329 36.362V0H84.412v36.362zm-8.639-25.919a17.4 17.4 0 0 0-8.578-2.549 9.79 9.79 0 0 0-7.21 2.8c-1.921 1.745-2.988 4.239-2.922 6.834a9.39 9.39 0 0 0 2.859 6.838 10.5 10.5 0 0 0 7.21 2.61 16.45 16.45 0 0 0 8.951-2.8v3.917c-2.807 1.509-5.952 2.279-9.138 2.237a14.39 14.39 0 0 1-7.211-1.678 13.96 13.96 0 0 1-4.661-4.663c-1.109-1.976-1.707-4.198-1.741-6.464a12.05 12.05 0 0 1 3.978-9.262 13.53 13.53 0 0 1 9.635-3.792 21.46 21.46 0 0 1 8.828 2.117v3.854zM80.19 0H42.269v36.362H80.19zm-26.3 5.407h6.589a11.67 11.67 0 0 1 4.91.808 6.37 6.37 0 0 1 2.612 2.3 6.27 6.27 0 0 1 .932 3.418c0 2.486-1.244 4.227-3.854 5.284a7.09 7.09 0 0 1 4.414 2.3c1.036 1.14 1.612 2.624 1.616 4.164-.034 1.206-.377 2.383-.994 3.419-.752 1.061-1.757 1.916-2.925 2.488a10.94 10.94 0 0 1-4.786.932H53.89zm5.969 10.754c1.447.125 2.894-.248 4.1-1.057.805-.757 1.255-1.816 1.242-2.921 0-2.362-1.553-3.605-4.6-3.605h-3.103v7.583h2.362zm.995 3.232h-3.356v7.893h3.605a15.6 15.6 0 0 0 3.915-.373 4.68 4.68 0 0 0 1.741-1.491 3.98 3.98 0 0 0 .622-2.051 4.04 4.04 0 0 0-.685-2.051 3.26 3.26 0 0 0-1.865-1.492 10.91 10.91 0 0 0-3.977-.435zM37.917 0H0v36.362h37.917zM11.566 30.519V5.407h6.589a11.37 11.37 0 0 1 4.848.808 5.88 5.88 0 0 1 2.673 2.362 6.47 6.47 0 0 1 .995 3.356c-.062 2.486-1.305 4.227-3.916 5.345a7.18 7.18 0 0 1 4.411 2.238 5.93 5.93 0 0 1 1.616 4.164 5.69 5.69 0 0 1-.995 3.419c-.707 1.076-1.696 1.936-2.859 2.487-1.527.666-3.183.985-4.848.932h-8.514zm6.71-21.941h-3.108v7.583h2.424a6.3 6.3 0 0 0 4.045-1.056 3.81 3.81 0 0 0 1.243-2.859c-.005-2.425-1.559-3.668-4.604-3.668zm.248 10.815h-3.356v7.894h3.543c1.357.054 2.716-.071 4.04-.373.675-.293 1.255-.766 1.678-1.368a5.18 5.18 0 0 0 .622-2.175 3.82 3.82 0 0 0-.684-2.051 3.32 3.32 0 0 0-1.865-1.433 11.05 11.05 0 0 0-3.977-.5z"/></svg>