<svg xmlns="http://www.w3.org/2000/svg" width="125.656" height="67.99"  xmlns:v="https://vecta.io/nano"><path d="M7.208 44.618a7.48 7.48 0 0 0 2.7 5.685v3.278a3.95 3.95 0 0 0 4.055 3.841c1.047.029 2.063-.359 2.824-1.08s1.204-1.714 1.231-2.761v-1.28h21.628v1.28a4.06 4.06 0 0 0 8.109 0v-3.278a7.48 7.48 0 0 0 2.7-5.685V19.009c.003-8.963-9.674-10.243-21.622-10.243S7.208 10.046 7.208 19.009zm9.461 2.561c-1.421.076-2.769-.639-3.502-1.859s-.734-2.745 0-3.965 2.081-1.935 3.502-1.859c1.421-.076 2.769.639 3.502 1.859s.734 2.745 0 3.965-2.081 1.935-3.502 1.859zm24.328 0a3.85 3.85 0 0 1-3.636-3.98 3.85 3.85 0 0 1 3.914-3.708 3.85 3.85 0 0 1 3.777 3.847 3.95 3.95 0 0 1-4.055 3.841zm4.055-15.365H12.614v-12.8h32.438zm46.609 2.181A11.33 11.33 0 0 0 102.131 27c1.754-4.235.785-9.109-2.456-12.35a11.33 11.33 0 0 0-12.35-2.456c-4.235 1.755-6.995 5.887-6.995 10.47a11.33 11.33 0 0 0 11.331 11.331zm0 5.666c-7.563 0-22.663 3.796-22.663 11.332v5.666h45.327v-5.666c0-7.536-15.1-11.332-22.664-11.332z"/></svg>